<svg xmlns="http://www.w3.org/2000/svg" viewBox="0 0 64 64" fill="none">
  <defs>
    <linearGradient id="left" x1="0" y1="1" x2="1" y2="0">
      <stop offset="0" stop-color="#0B4F5C"/>
      <stop offset="0.55" stop-color="#176B87"/>
      <stop offset="1" stop-color="#19C3C8"/>
    </linearGradient>
    <linearGradient id="right" x1="1" y1="0" x2="0" y2="1">
      <stop offset="0" stop-color="#35D6D6"/>
      <stop offset="0.5" stop-color="#19C3C8"/>
      <stop offset="1" stop-color="#176B87"/>
    </linearGradient>
    <linearGradient id="dot" x1="0" y1="0" x2="1" y2="1">
      <stop offset="0" stop-color="#35D6D6"/>
      <stop offset="1" stop-color="#19C3C8"/>
    </linearGradient>
  </defs>
  <path d="M 36.46 24.32 A 15.00 15.00 0 1 1 32.90 21.25 L 28.95 27.63 A 7.50 7.50 0 1 0 30.73 29.16 Z" fill="url(#left)"/>
  <path d="M 30.89 43.41 A 14.00 14.00 0 1 1 34.81 45.36 L 36.91 38.68 A 7.00 7.00 0 1 0 34.95 37.71 Z" fill="url(#right)"/>
  <path d="M 33 41.8 C 26.6 36.2 26.6 31.8 29.9 31.8 C 31.4 31.8 31.6 32.8 33 34.4 C 34.4 32.8 34.6 31.8 36.1 31.8 C 39.4 31.8 39.4 36.2 33 41.8 Z" fill="#DDF5EC"/>
  <path d="M 33 32.2 V 37.8 M 30.2 35 H 35.8" stroke="#0B4F5C" stroke-width="2.6" stroke-linecap="round"/>
  <circle cx="46.5" cy="15.5" r="3.4" fill="url(#dot)"/>
  <circle cx="45.6" cy="14.6" r="1.05" fill="#FFFFFF" opacity="0.85"/>
</svg>